<svg xmlns="http://www.w3.org/2000/svg" x="0px" y="0px"
width="96" height="96"
viewBox="0 0 224 224"
style=" fill:#000000;"><g fill="none" fill-rule="nonzero" stroke="none" stroke-width="1" stroke-linecap="butt" stroke-linejoin="miter" stroke-miterlimit="10" stroke-dasharray="" stroke-dashoffset="0" font-family="none" font-weight="none" font-size="none" text-anchor="none" style="mix-blend-mode: normal"><path d="M0,224v-224h224v224z" fill="none"></path><path d="M91.168,179.2c-25.60834,0 -46.368,-20.75966 -46.368,-46.368v-41.664c0,-25.60834 20.75966,-46.368 46.368,-46.368h41.664c25.60834,0 46.368,20.75966 46.368,46.368v41.664c0,25.60834 -20.75966,46.368 -46.368,46.368z" fill="#000000"></path><g><g id="surface1"><path d="M88.02945,84.61284h-14.38233v-4.31657c0,-1.67607 1.19853,-2.87459 2.87459,-2.87459h8.63314c1.67607,0 2.87459,1.19853 2.87459,2.87459z" fill="#ffd259"></path><path d="M150.35288,149.33333h-76.70577c-5.27165,0 -9.58822,-4.31657 -9.58822,-9.58822v-33.55877h95.88221v33.55877c0,5.27165 -4.31657,9.58822 -9.58822,9.58822z" fill="#2b2b4d"></path><path d="M84.9114,106.18634c-0.95508,3.11804 -1.67607,6.23609 -1.67607,9.58822c0,15.82431 12.94035,28.76466 28.76466,28.76466c15.82431,0 28.76466,-12.94035 28.76466,-28.76466c0,-3.35213 -0.72099,-6.47018 -1.67607,-9.58822z" fill="#56d3c7"></path><path d="M73.64712,82.21579h76.70577c5.27165,0 9.58822,4.31657 9.58822,9.58822v14.38233h-95.88221v-14.38233c0,-5.27165 4.31657,-9.58822 9.58822,-9.58822z" fill="#66cdf9"></path><path d="M135.7271,84.85629h-47.22012l8.15561,-12.22873c0.95508,-1.44198 2.39706,-2.1536 4.07312,-2.1536h23.00611c1.68543,0 3.11804,0.71163 4.08248,2.1536z" fill="#66cdf9"></path><path d="M139.0886,106.18634c-3.83903,-11.26429 -14.62578,-19.17644 -27.0886,-19.17644c-12.46282,0 -23.24956,7.91215 -27.0886,19.17644z" fill="#d5e5ed"></path><path d="M133.5735,115.77456c0,11.91037 -9.66313,21.5735 -21.5735,21.5735c-11.91037,0 -21.5735,-9.66313 -21.5735,-21.5735c0,-11.91037 9.66313,-21.5735 21.5735,-21.5735c11.91037,0 21.5735,9.66313 21.5735,21.5735z" fill="#000000"></path><path d="M123.98528,108.58339c-2.87459,-3.35213 -7.19117,-5.27165 -11.50774,-5.27165c-4.31657,0 -8.62378,1.91952 -11.50774,5.27165c-1.19853,1.19853 -0.95508,3.11804 0.24345,4.31657c1.19853,1.19853 3.11804,0.95508 4.31657,-0.24345c3.59558,-4.07312 10.30921,-4.07312 13.9048,0c0.71163,0.72099 1.43261,0.96444 2.39706,0.96444c0.71163,0 1.43261,-0.24345 2.1536,-0.72099c0.95508,-0.96444 1.19853,-3.11804 0,-4.31657z" fill="#d5e5ed"></path><path d="M140.76466,89.40695h11.98528v9.58822h-11.98528z" fill="#ec7079"></path></g></g><path d="M0,224v-224h224v224z" fill="none"></path><path d="M4.48,219.52v-215.04h215.04v215.04z" fill="none"></path><path d="M0,224v-224h224v224z" fill="none"></path><path d="M4.48,219.52v-215.04h215.04v215.04z" fill="none"></path><path d="M0,224v-224h224v224z" fill="none"></path><path d="M8.96,215.04v-206.08h206.08v206.08z" fill="none"></path><path d="M0,224v-224h224v224z" fill="none"></path><path d="M17.92,206.08v-188.16h188.16v188.16z" fill="none"></path><path d="M0,224v-224h224v224z" fill="none"></path><path d="M22.4,201.6v-179.2h179.2v179.2z" fill="none"></path><path d="M0,224v-224h224v224z" fill="none"></path><path d="M26.88,197.12v-170.24h170.24v170.24z" fill="none"></path><path d="M0,224v-224h224v224z" fill="none"></path><path d="M31.36,192.64v-161.28h161.28v161.28z" fill="none"></path><path d="M0,224v-224h224v224z" fill="none"></path><path d="M35.84,188.16v-152.32h152.32v152.32z" fill="none"></path><path d="M0,224v-224h224v224z" fill="none"></path><path d="M40.32,183.68v-143.36h143.36v143.36z" fill="none"></path><path d="M0,224v-224h224v224z" fill="none"></path><path d="M44.8,179.2v-134.4h134.4v134.4z" fill="none"></path><path d="M0,224v-224h224v224z" fill="none"></path><path d="M40.32,183.68v-143.36h143.36v143.36z" fill="none"></path><path d="M0,224v-224h224v224z" fill="none"></path><path d="M31.36,192.64v-161.28h161.28v161.28z" fill="none"></path><path d="M0,224v-224h224v224z" fill="none"></path><path d="M13.44,210.56v-197.12h197.12v197.12z" fill="none"></path><path d="M0,224v-224h224v224z" fill="none"></path><path d="M4.48,219.52v-215.04h215.04v215.04z" fill="none"></path></g></svg>